<?xml version="1.0" encoding="UTF-8"?>
<svg width="35px" height="43px" viewBox="0 0 35 43" version="1.1" xmlns="http://www.w3.org/2000/svg" xmlns:xlink="http://www.w3.org/1999/xlink">
    <!-- Generator: Sketch 52.4 (67378) - http://www.bohemiancoding.com/sketch -->
    <title>Leaf 2</title>
    <desc>Created with Sketch.</desc>
    <g id="Page-1" stroke="none" stroke-width="1" fill="none" fill-rule="evenodd">
        <g id="Services" transform="translate(-280.000000, -1898.000000)" fill="#282828">
            <g id="Leaf-2" transform="translate(280.000000, 1898.000000)">
                <path d="M35,26.4709717 C29.9773835,38.4451008 17.9449809,31.2010593 17.9449809,31.2010593 C14.253221,38.366266 8.1549806,42.9737217 1.11784818,43 C-0.349740317,43 -0.395317599,40.8627012 1.11784818,40.8627012 C6.98820217,40.8364229 12.1019733,37.1224282 15.4473458,31.2185781 C11.7008932,32.6113261 4.63641439,33.6624567 0.716768094,24.0183337 C10.6526157,20.0853534 15.2194594,24.9993889 16.969627,28.0038704 C17.8720572,25.8665716 18.5192546,23.5453249 18.9385656,21.0226115 C18.9385656,21.0226115 6.20427291,22.9409248 5.31095817,12.4296191 C16.1674669,8.23385618 19.2211448,19.1480953 19.2211448,19.1480953 C19.3669921,17.6852719 19.5219549,14.5406396 19.5219549,14.4705643 C19.5219549,14.4705643 9.8322246,8.01487065 16.0489659,0 C27.4068247,3.76655123 21.6458562,14.2253005 21.6458562,14.2253005 C21.6914335,14.3654512 21.6914335,16.3100428 21.6458562,17.1509472 C21.6458562,17.1509472 25.7660426,9.35506213 34.0793389,12.1142799 C33.6964897,23.8519047 21.1445061,21.4343043 21.1445061,21.4343043 C20.743426,23.8343858 20.123575,26.1118354 19.3214148,28.222856 C19.3214148,28.222856 26.8872437,20.1817071 35,26.4709717 Z" id="Path"></path>
            </g>
        </g>
    </g>
</svg>