<?xml version="1.0" encoding="UTF-8"?>
<svg width="47px" height="27px" viewBox="0 0 47 27" version="1.1" xmlns="http://www.w3.org/2000/svg" xmlns:xlink="http://www.w3.org/1999/xlink">
    <!-- Generator: Sketch 52.4 (67378) - http://www.bohemiancoding.com/sketch -->
    <title>Actual Submarine</title>
    <desc>Created with Sketch.</desc>
    <g id="Page-1" stroke="none" stroke-width="1" fill="none" fill-rule="evenodd">
        <g id="Services" transform="translate(-279.000000, -1279.000000)" stroke="#282828" stroke-width="1.5">
            <g id="Actual-Submarine" transform="translate(270.000000, 1275.000000)">
                <path d="M54.9429187,16.9175053 L55.0570813,29.0824947 L54.9429187,16.9175053 Z M49,23 L55,23 L49,23 Z M25,5 L28,5 L25,5 Z M28.5,9 L28.5,5 L28.5,9 Z M18,16 L18,29 L18,16 Z M18,16 L18,29 L18,16 Z M37.432,9.99980749 C37.432,9.44762906 36.9802149,9 36.440576,9 L27.2516092,9 C26.7040608,9 25.9673654,9.34367025 25.6131547,9.75939238 L22,14 L37.4319998,14 L37.432,9.99980749 Z" id="Imported-Layers" stroke-linecap="round" stroke-linejoin="round"></path>
                <rect id="Rectangle-44" x="9.75" y="14.75" width="38.5" height="15.5" rx="7.75"></rect>
                <rect id="Rectangle-44" x="20.75" y="20.75" width="4.5" height="4.5" rx="2.25"></rect>
                <rect id="Rectangle-44" x="29.75" y="20.75" width="4.5" height="4.5" rx="2.25"></rect>
                <rect id="Rectangle-44" x="38.75" y="20.75" width="4.5" height="4.5" rx="2.25"></rect>
            </g>
        </g>
    </g>
</svg>